# Vectary OBJ Export units=mm
mtllib Project Name.mtl 
o 000_
g Layer_1
usemtl Default material_0
v 173.686 3.941 3.646
v 173.686 16.154 3.646
v -99.659 16.154 3.646
v -99.659 3.941 3.646
v 173.686 16.154 16.707
v -99.659 16.154 16.707
v -99.659 3.941 16.707
v -102.592 22.624 0.000
v -97.792 1.627 0.000
v -97.001 -8.339 -0.000
v -99.668 26.398 27.413
v -99.668 -7.116 26.629
v -99.668 10.033 10.264
v -99.668 27.181 -6.100
v -99.668 -6.332 -6.884
v -145.389 10.033 10.264
v 173.686 3.941 16.707
vn 0.000 0.000 -1.000
vn 1.000 0.000 0.000
vn 0.000 -1.000 0.000
vn 0.000 0.000 -1.000
vn 0.000 1.000 0.000
vn 1.000 0.000 0.000
vn 0.000 0.000 -1.000
vn 0.000 1.000 0.000
vn -1.000 0.000 0.000
vn 0.000 0.000 -1.000
vn -1.000 0.000 0.000
vn 0.000 -1.000 0.000
vn 0.000 1.000 0.000
vn 1.000 0.000 0.000
vn -0.000 0.000 1.000
vn 0.000 1.000 0.000
vn -1.000 0.000 0.000
vn -0.000 0.000 1.000
vn -1.000 0.000 0.000
vn -0.000 0.000 1.000
vn 0.000 -1.000 0.000
vn 1.000 0.000 0.000
vn -0.344 -0.022 0.939
vn -0.344 0.939 0.022
vn 1.000 0.000 0.000
vn -0.344 -0.022 0.939
vn -0.344 -0.939 -0.022
vn 1.000 0.000 0.000
vn 1.000 0.000 0.000
vn -0.344 0.939 0.022
vn -0.344 0.022 -0.939
vn 1.000 0.000 0.000
vn -0.344 0.022 -0.939
vn -0.344 -0.939 -0.022
vn -0.344 -0.022 0.939
vn -0.344 0.939 0.022
vn -0.344 0.022 -0.939
vn -0.344 -0.939 -0.022
vn 1.000 0.000 0.000
vn -0.000 0.000 1.000
vn 0.000 -1.000 0.000
f 4//10 3//7 2//4 1//1 
f 2//5 3//8 6//16 5//13 
f 4//11 7//19 6//17 3//9 
f 11//22 12//25 13//28 
f 14//29 11//22 13//28 
f 15//32 14//29 13//28 
f 12//25 15//32 13//28 
f 11//23 16//35 12//26 
f 14//30 16//36 11//24 
f 15//33 16//37 14//31 
f 12//27 16//38 15//34 
f 2//6 5//14 17//39 1//2 
f 17//40 5//15 6//18 7//20 
f 17//41 7//21 4//12 1//3 
